<?xml version="1.0" encoding="utf-8"?>
<!-- Generator: Adobe Illustrator 22.0.1, SVG Export Plug-In . SVG Version: 6.00 Build 0)  -->
<svg id="sweet" class="food" version="1.1" xmlns="http://www.w3.org/2000/svg" xmlns:xlink="http://www.w3.org/1999/xlink" x="0px" y="0px"
	 viewBox="0 0 284.4 349.4" style="enable-background:new 0 0 284.4 349.4;" xml:space="preserve">
<style type="text/css">
	.st0{fill:#A3764D;stroke:#000000;stroke-width:3;stroke-miterlimit:10;}
	.st1{fill:#FFFFFF;stroke:#000000;stroke-width:3;stroke-miterlimit:10;}
	.st2{fill:#92A1C2;stroke:#000000;stroke-width:3;stroke-miterlimit:10;}
	.st3{fill:#B5D05E;stroke:#000000;stroke-width:3;stroke-miterlimit:10;}
	.st4{fill:#F5D63F;stroke:#000000;stroke-width:3;stroke-miterlimit:10;}
	.st5{fill:#DCA128;stroke:#000000;stroke-width:3;stroke-miterlimit:10;}
	.st6{fill:none;stroke:#000000;stroke-width:3;stroke-miterlimit:10;}
	.st7{fill:#C04A4A;stroke:#000000;stroke-width:3;stroke-miterlimit:10;}
	.st8{fill:#A61E22;stroke:#000000;stroke-width:3;stroke-miterlimit:10;}
	.st9{fill:#FFFFFF;}

	#sweet:hover .st1 {fill:#fff200}
	#sweet:hover .st2 {fill:#7001a8;}
	#sweet:hover .st3 {fill:#04ffee;}
	#sweet:hover .st4 {fill:#ff0084;}
</style>
<defs>
	<script xlink:href="../../js/main.js" type="text/javascript">
		
	</script>
</defs>
<g id="cake_brown">
	<path class="st0" d="M10.8,207.7l6,115.1c0,0-1,25,26.5,25h189c0,0,33.4,3.5,37.2-21.5l5.3-115.5
		C274.8,210.8,146.8,173.8,10.8,207.7z"/>
	<path class="st0" d="M59.2,120.4l3.9,74.2c0,0-0.6,16.1,17.1,16.1H202c0,0,21.5,2.3,24-13.9l3.4-74.5
		C229.4,122.4,146.9,98.5,59.2,120.4z"/>
</g>
<g id="cake_white">
	<path class="st1" d="M7.3,207.2c0,0-17.5,43.5,8.5,39.5c0,0,7.5-1,21-15.5c0,0,8.1-8.1,14.9-1c1.6,1.7,3.4,3.3,5.3,4.7
		c1.5,1.1,3.5,2.4,5.6,3.8c9.7,6.2,21,9.5,32.5,9.5c0.3,0,0.6,0,0.9,0c7.4-0.1,14.6-2.7,20.5-7.3c4-3.2,9.3-7.4,15.3-12.4
		c0,0,9.5-11.2,28,5.3c0,0,17,18.5,36.5,18.5c0,0,11,3,37.5-22.5c0,0,9-6.9,18,0.1c0,0,10.5,17.4,23.5,16.4c0,0,13,3,5-36.5
		C280.3,209.7,172.2,153.1,7.3,207.2z"/>
	<path class="st1" d="M51.7,116.2c0,0-11.9,29.5,5.8,26.8c0,0,5.1-0.7,14.3-10.5c0,0,5.5-5.5,10.1-0.7c1.1,1.2,2.3,2.3,3.6,3.2
		c1.1,0.7,2.4,1.6,3.8,2.6c6.6,4.2,14.2,6.5,22.1,6.4c0.2,0,0.4,0,0.6,0c5-0.1,9.9-1.9,13.9-5c2.7-2.1,6.3-5,10.4-8.4
		c0,0,6.4-7.6,19,3.6c0,0,11.5,12.6,24.8,12.6c0,0,7.5,2,25.5-15.3c0,0,6.1-4.7,12.2,0c0,0,7.1,11.8,15.9,11.2c0,0,8.8,2,3.4-24.8
		C237,117.9,163.6,79.5,51.7,116.2z"/>
</g>
<g id="candle_body">
	<path class="st2" d="M75.4,109.3V69.2c0,0-1.3-12,12.5-14c0,0,11.8,0.5,12.3,11.5v37.5L75.4,109.3z"/>
	<path class="st3" d="M207.7,107.3V67.2c0,0,1.3-12-12.5-14c0,0-11.8,0.5-12.3,11.5v37.5L207.7,107.3z"/>
	<path class="st4" d="M128.3,100.9c0,0,16.8-1.3,23-0.5c1,0.1,1.9-0.6,1.9-1.7V55.2c0,0,0.3-11.5-11.1-11.5c0,0-13.4-2-13.9,9.5
		V100.9z"/>
	<path class="st5" d="M85.8,16.7c0,0-23,26.5,0,31C85.8,47.7,110.3,44.7,85.8,16.7z"/>
	<path class="st5" d="M140.4,2.3c0,0-23,26.5,0,31C140.4,33.3,164.9,30.3,140.4,2.3z"/>
	<path class="st5" d="M196,16.7c0,0-23,26.5,0,31C196,47.7,220.5,44.7,196,16.7z"/>
	<line class="st6" x1="86.8" y1="47.7" x2="86.8" y2="55.6"/>
	<line class="st6" x1="140.8" y1="34.4" x2="140.8" y2="42.4"/>
	<line class="st6" x1="195.3" y1="47.7" x2="195.3" y2="53.2"/>
</g>
<g id="circles">
	<circle class="st7" cx="46.3" cy="180.9" r="23.2"/>
	<circle class="st7" cx="111.1" cy="175.8" r="23.2"/>
	<circle class="st7" cx="180.8" cy="176.8" r="23.2"/>
	<circle class="st7" cx="246" cy="183.8" r="23.2"/>
	<path class="st8" d="M196.3,30.5c0,0-9.3,11.7,0,13C196.3,43.5,206.3,43.5,196.3,30.5z"/>
	<path class="st8" d="M140.8,16.2c0,0-9.3,11.7,0,13C140.8,29.2,150.8,29.2,140.8,16.2z"/>
	<path class="st8" d="M85.8,30.5c0,0-9.3,11.7,0,13C85.8,43.5,95.8,43.5,85.8,30.5z"/>
	<circle class="st9" cx="238.8" cy="175.8" r="7.4"/>
	<circle class="st9" cx="174.8" cy="167.8" r="7.4"/>
	<circle class="st9" cx="104.1" cy="167.8" r="7.4"/>
	<circle class="st9" cx="38.9" cy="173.2" r="7.4"/>
</g>
</svg>
