<?xml version="1.0" encoding="utf-8"?>
<!-- Generator: Adobe Illustrator 22.0.1, SVG Export Plug-In . SVG Version: 6.00 Build 0)  -->
<svg id="sprink" class="food" version="1.1" xmlns="http://www.w3.org/2000/svg" xmlns:xlink="http://www.w3.org/1999/xlink" x="0px" y="0px"
	 viewBox="0 0 247.3 250" style="enable-background:new 0 0 247.3 250;" xml:space="preserve">
<style type="text/css">
	.st0{fill:#D3A971;stroke:#000000;stroke-width:3;stroke-miterlimit:10;}
	.st1{fill:url(#SVGID_1_);stroke:#000000;stroke-width:3;stroke-miterlimit:10;}
	.st2{fill:#478C83;stroke:#000000;stroke-width:3;stroke-miterlimit:10;}
	.st3{fill:#FFE400;stroke:#000000;stroke-width:2;stroke-miterlimit:10;}
	.st4{fill:#6BA3D8;stroke:#000000;stroke-width:2;stroke-miterlimit:10;}
	.st5{fill:#3AB54A;stroke:#000000;stroke-width:2;stroke-miterlimit:10;}
	.st6{fill:#EE2424;stroke:#000000;stroke-width:2;stroke-miterlimit:10;}
	.st7{fill:#FFFFFF;stroke:#000000;stroke-width:2;stroke-miterlimit:10;}

	#sprink:hover .st3 {fill:#5b02ff;}
	#sprink:hover .st4 {fill:#04ffa3;}
	#sprink:hover .st5 {fill:#ff405d;}
	#sprink:hover .st6 {fill:#ffb47a;}
	#sprink:hover .st7 {fill:#d5ff72;}
</style>
<defs>
	<script xlink:href="../../js/main.js" type="text/javascript">
		
	</script>
</defs>
<g id="donut_exterior">
	<path class="st0" d="M94.5,6.2c8-1.5,19.4-3.3,33.1-4.5c3.6-0.3,7.2-0.3,10.8,0.1c7.5,0.7,20,2.6,26.6,6.9c2.3,1.5,4.6,2.8,7.1,3.9
		c6.5,2.7,19.9,10.6,35.7,32.8c0,2.5,38,30.5,37,69c0,0,3.7,35.2-3.9,47.1c0,0-25.2,53.5-50.7,66.2c0,0-35.4,25.2-70.9,20.2
		c0,0-34.4-2.4-56.1-19.9c-1.3-1-2.7-1.9-4.2-2.6c-6.8-3-27.3-13.4-39.7-34c0,0-7.7-11.8-13.3-31.8c-6.9-24.5-6-50.5,1.8-74.8
		C8,84.5,8.1,84.2,8.2,84c4.6-14.3,12.7-27.2,23.5-37.6c9.1-8.8,22.3-20.7,35.9-29.5C75.7,11.6,84.9,8,94.5,6.2z"/>
</g>
<g id="donut_sauce">
	<linearGradient id="SVGID_1_" gradientUnits="userSpaceOnUse" x1="34.4377" y1="38.0583" x2="209.2535" y2="212.8741">
		<stop  offset="9.518295e-02" style="stop-color:#F9CDE1"/>
		<stop  offset="0.2477" style="stop-color:#ED8EBB"/>
		<stop  offset="0.814" style="stop-color:#E16FAB"/>
		<stop  offset="0.9326" style="stop-color:#DF4F9C"/>
	</linearGradient>
	<path class="st1" d="M11.9,81.3c0,0-4-35.5,24-33.5c0,0,18,0.5,27.5-17.5c0,0,8.5-21,27-18c0,0,15,1,21,4c0,0,20,3.9,38-4.3
		c0,0,24-4.2,34.5,5.8c0,0,15,8.8,13,28.4c0,0,3.5,17.6,22.5,26.6c0,0,16.5,10,18,20c0,0,2,18.3-5,31.2c0,0-3.5,15.8,5.3,25.8
		c0,0,10.2,23-5.3,35c0,0-27.5,6-34.5,21c0,0-1,12.7-5.4,22.3c-2.5,5.6-8,9.3-14.1,9.7c-5.6,0.4-15.3,0.8-31.6,0.5
		c0,0-13.1,0.9-25.2,4.5c-10.9,3.2-23.3,9-32.2-4.4c-2.7-4-6.3-6.3-10.1-11.1c0,0-9-10-27.5-10c0,0-23.5-5-22.5-21
		c0,0-0.5-19.5-5.5-32c0,0-2.7-5.3-6.2-9.8c-6.9-9-9.7-20.6-6.9-31.6c0.3-1,0.6-2,0.9-3.1C11.7,119.8,16.9,113.8,11.9,81.3z"/>
</g>
<g id="donut_interior">
	<path class="st0" d="M76.4,106c1-3.4,4.7-8.7,7.3-11.1c3.6-3.3,10.7-8.1,15.6-8.4c0,0,2.7-0.1,9-4.6c3.7-2.7,8-4.4,12.5-4.9
		c0.1,0,0.2,0,0.3,0c7-0.7,14.1,1.1,20.1,4.9c1.9,1.2,4.2,2.4,6.7,3.1c3,0.9,5.8,2.5,8.2,4.6c5,4.6,8.1,16.5,9.4,27.1
		c0.3,2.1,0.6,4.2,1.1,6.3c1.1,4.7,2.8,14.8,0.8,24.3c-2.4,11.1-16.3,20.4-27.5,19.4c-5.5-0.5-7.9,0.5-13.3,3c0,0-13.7,9-27.7-2.2
		c-0.6-0.5-1.2-1.1-1.6-1.8c-1.8-2.7-3.2-6.4-11.3-12.6c-6.4-5-9.3-15.1-6.7-22.8C81.9,122.9,72.9,118.7,76.4,106z"/>
</g>
<g id="donut_hole">
	<path class="st2" d="M117.1,95.1c12.3-1.1,27.1,2.6,35,23c4.7,12.2,2,26.2-7.7,35.1c-0.3,0.3-0.6,0.6-0.9,0.8
		c-9.5,8.1-23.1,8.9-34,2.8c-9-5.1-20.8-14.7-21.2-30.2C87.8,110.2,100.7,96.6,117.1,95.1z"/>
</g>
<g id="sprinkes">
	<path class="st3" d="M44.2,116.6c0,0,2.5-2.5,4.5,0c0,0-0.8,9.1,4.5,11.3c0,0,3.8,6.2-1.8,5.5C51.4,133.3,43.4,129.1,44.2,116.6z"
		/>
	<path class="st3" d="M40.9,73.8c0.2-8.2-6.8-12.2-6.8-12.2c-0.8-0.2-1.4-0.2-2,0c-1.8,0.7-2.1,3.2-0.8,4.5c3.2,3.2,4.1,6.3,4.3,8.6
		c0.2,2.4,1.1,4.4,3.5,4c0,0,0,0,0,0c0.9-0.2,1.7-0.9,1.7-1.9C40.9,76.2,40.9,75.2,40.9,73.8z"/>
	<path class="st3" d="M101.7,44.8c0,0,1.9,3-1,4.4c0,0-8.7-2.8-12,1.9c0,0-6.9,2.3-4.9-2.9C83.7,48.1,89.7,41.2,101.7,44.8z"/>
	<path class="st3" d="M165.6,63c-5.3,6.3-2.3,13.8-2.3,13.8c0.4,0.7,1,1,1.6,1.2c1.9,0.5,3.6-1.2,3.4-3.1c-0.5-4.4,0.7-7.5,2-9.4
		c1.4-2,1.9-4.2-0.3-5.3c0,0,0,0,0,0c-0.8-0.5-1.9-0.3-2.5,0.4C167.1,61.2,166.5,62,165.6,63z"/>
	<path class="st3" d="M167.5,185.6c0,0,3.3,1.3,1.8,4.1c0,0-8.6,3-8.4,8.7c0,0-4.1,6-5.7,0.6C155.2,199.1,155.8,190,167.5,185.6z"/>
	<path class="st3" d="M213.1,122c-4.8-6.7-12.8-5.7-12.8-5.7c-0.7,0.3-1.2,0.7-1.5,1.2c-1,1.7,0.2,3.8,2.1,4.1
		c4.4,0.6,7.1,2.5,8.6,4.3c1.6,1.9,3.5,2.9,5.2,1.1c0,0,0,0,0,0c0.7-0.7,0.8-1.7,0.2-2.5C214.5,123.9,213.9,123.1,213.1,122z"/>
	<path class="st4" d="M127.4,219.4c-5.7-6-13.4-3.9-13.4-3.9c-0.7,0.4-1.1,0.9-1.4,1.4c-0.7,1.8,0.7,3.7,2.7,3.7
		c4.5,0,7.4,1.5,9.1,3.1c1.9,1.6,3.9,2.4,5.3,0.3c0,0,0,0,0,0c0.6-0.8,0.5-1.8-0.2-2.5C129,221.1,128.3,220.4,127.4,219.4z"/>
	<path class="st4" d="M192.3,122.4c-1.5-8.1-9.2-10.5-9.2-10.5c-0.8-0.1-1.4,0.1-1.9,0.5c-1.6,1.1-1.4,3.5,0.2,4.6
		c3.8,2.4,5.4,5.2,6.1,7.5c0.7,2.4,2,4.1,4.3,3.2c0,0,0,0,0,0c0.9-0.4,1.4-1.3,1.2-2.2C192.8,124.7,192.6,123.8,192.3,122.4z"/>
	<path class="st4" d="M61.2,182.1c-4.4,7-0.4,14-0.4,14c0.5,0.6,1.1,0.9,1.7,1c1.9,0.3,3.4-1.6,3-3.5c-1.1-4.3-0.4-7.5,0.7-9.6
		c1.1-2.2,1.3-4.4-1-5.2c0,0,0,0,0,0c-0.9-0.4-1.9,0-2.4,0.8C62.4,180.1,61.9,181,61.2,182.1z"/>
	<path class="st4" d="M50.1,87.7c-8.2,0.8-11.3,8.2-11.3,8.2c-0.2,0.8,0,1.4,0.3,1.9c1,1.7,3.4,1.7,4.6,0.2c2.7-3.5,5.7-4.9,8-5.3
		c2.4-0.5,4.3-1.6,3.5-4c0,0,0,0,0,0c-0.3-0.9-1.1-1.5-2.1-1.4C52.5,87.4,51.5,87.5,50.1,87.7z"/>
	<path class="st4" d="M121.8,38.4c-8.2,0.3-11.8,7.6-11.8,7.6c-0.2,0.8-0.1,1.4,0.2,2c0.9,1.7,3.3,1.9,4.6,0.5
		c2.9-3.4,6-4.5,8.3-4.9c2.4-0.3,4.3-1.4,3.8-3.8c0,0,0,0,0,0c-0.2-0.9-1-1.6-2-1.5C124.1,38.2,123.1,38.3,121.8,38.4z"/>
	<path class="st5" d="M200.3,146.9c-8-1.9-13.3,4.2-13.3,4.2c-0.4,0.7-0.5,1.3-0.3,1.9c0.4,1.9,2.7,2.7,4.3,1.6
		c3.7-2.5,7-2.8,9.3-2.5c2.4,0.3,4.6-0.2,4.6-2.7c0,0,0,0,0,0c0-1-0.6-1.8-1.5-2C202.5,147.4,201.6,147.2,200.3,146.9z"/>
	<path class="st5" d="M128.7,198.4c-3.2-7.6-11.2-8.4-11.2-8.4c-0.8,0.1-1.4,0.4-1.8,0.9c-1.3,1.4-0.6,3.8,1.2,4.4
		c4.2,1.6,6.4,4,7.5,6.1c1.2,2.2,2.8,3.6,4.9,2.2c0,0,0,0,0,0c0.8-0.5,1.1-1.5,0.7-2.4C129.6,200.5,129.2,199.6,128.7,198.4z"/>
	<path class="st5" d="M121.1,64.4c-3.2-7.6-11.2-8.4-11.2-8.4c-0.8,0.1-1.4,0.4-1.8,0.9c-1.3,1.4-0.6,3.8,1.2,4.4
		c4.2,1.6,6.4,4,7.5,6.1c1.2,2.2,2.8,3.6,4.9,2.2c0,0,0,0,0,0c0.8-0.5,1.1-1.5,0.7-2.4C122.1,66.6,121.7,65.7,121.1,64.4z"/>
	<path class="st5" d="M156.1,38.6c-8.3,0-12,7.2-12,7.2c-0.2,0.8-0.1,1.4,0.1,2c0.8,1.8,3.2,2,4.5,0.6c3-3.3,6.1-4.3,8.5-4.6
		c2.4-0.3,4.4-1.2,3.9-3.7c0,0,0,0,0,0c-0.2-0.9-1-1.6-1.9-1.6C158.4,38.5,157.4,38.5,156.1,38.6z"/>
	<path class="st5" d="M190.3,67.3c-3.2-7.6-11.2-8.4-11.2-8.4c-0.8,0.1-1.4,0.4-1.8,0.9c-1.3,1.4-0.6,3.8,1.2,4.4
		c4.2,1.6,6.4,4,7.5,6.1c1.2,2.2,2.8,3.6,4.9,2.2c0,0,0,0,0,0c0.8-0.5,1.1-1.5,0.7-2.4C191.3,69.4,190.9,68.5,190.3,67.3z"/>
	<path class="st6" d="M99,64.9c-3.9-7.3-12-7.2-12-7.2c-0.8,0.2-1.3,0.5-1.7,1c-1.2,1.5-0.3,3.8,1.6,4.3c4.3,1.1,6.7,3.4,8,5.3
		c1.4,2,3.2,3.3,5.1,1.7c0,0,0,0,0,0c0.7-0.6,1-1.6,0.5-2.5C100.2,66.9,99.7,66.1,99,64.9z"/>
	<path class="st6" d="M80.3,160.4c-6.8-4.6-14-0.9-14-0.9c-0.6,0.5-0.9,1.1-1,1.7c-0.3,1.9,1.5,3.5,3.4,3.1c4.4-1,7.5-0.1,9.6,1
		c2.2,1.2,4.3,1.4,5.3-0.8c0,0,0,0,0,0c0.4-0.9,0.1-1.9-0.7-2.4C82.3,161.7,81.5,161.1,80.3,160.4z"/>
	<path class="st6" d="M38.7,139.2c2.9-7.7-2.5-13.8-2.5-13.8c-0.6-0.5-1.3-0.6-1.9-0.6c-1.9,0.1-3,2.3-2.2,4c2,4,1.9,7.3,1.3,9.5
		c-0.6,2.4-0.4,4.5,2.1,4.9c0,0,0,0,0,0c0.9,0.2,1.9-0.4,2.2-1.3C38,141.4,38.3,140.5,38.7,139.2z"/>
	<path class="st6" d="M214.6,153.9c-8.3-0.1-12.1,7-12.1,7c-0.2,0.8-0.2,1.4,0.1,2c0.8,1.8,3.2,2.1,4.5,0.7c3.1-3.2,6.2-4.2,8.5-4.4
		c2.4-0.2,4.4-1.2,3.9-3.6c0,0,0,0,0,0c-0.2-0.9-1-1.7-1.9-1.6C216.9,153.8,215.9,153.8,214.6,153.9z"/>
	<path class="st6" d="M41.4,173c-3,7.7,2.3,13.8,2.3,13.8c0.6,0.5,1.3,0.6,1.9,0.6c1.9-0.1,3.1-2.3,2.2-4c-1.9-4-1.8-7.3-1.2-9.6
		c0.7-2.4,0.4-4.5-2-5c0,0,0,0,0,0c-0.9-0.2-1.9,0.3-2.2,1.2C42.1,170.8,41.8,171.7,41.4,173z"/>
	<path class="st7" d="M67.5,74.9c4.7,6.8,12.7,5.8,12.7,5.8c0.8-0.2,1.2-0.7,1.6-1.2c1-1.7-0.2-3.8-2.1-4.1
		c-4.4-0.6-7.1-2.6-8.6-4.4c-1.6-1.9-3.5-2.9-5.2-1.1c0,0,0,0,0,0c-0.7,0.7-0.8,1.7-0.2,2.5C66.1,73,66.7,73.8,67.5,74.9z"/>
	<path class="st7" d="M36.9,158.5c7.6,3.2,13.8-2,13.8-2c0.5-0.6,0.7-1.2,0.7-1.9c-0.1-1.9-2.2-3.1-4-2.3c-4.1,1.9-7.3,1.6-9.6,1
		c-2.4-0.7-4.5-0.5-5,1.9c0,0,0,0,0,0c-0.2,0.9,0.3,1.9,1.2,2.2C34.7,157.7,35.7,158.1,36.9,158.5z"/>
	<path class="st7" d="M85.6,197.9c-7.2,4-7.1,12-7.1,12c0.2,0.8,0.6,1.3,1,1.7c1.5,1.2,3.8,0.2,4.3-1.6c1.1-4.3,3.3-6.8,5.2-8.1
		c2-1.4,3.3-3.2,1.7-5.1c0,0,0,0,0,0c-0.6-0.7-1.7-1-2.5-0.5C87.6,196.8,86.7,197.3,85.6,197.9z"/>
	<path class="st7" d="M145.7,56.4c-4.3-7.1-12.3-6.6-12.3-6.6c-0.8,0.2-1.3,0.6-1.6,1.1c-1.1,1.6-0.1,3.8,1.8,4.2
		c4.4,0.9,6.9,3,8.3,4.9c1.5,2,3.3,3.1,5.1,1.4c0,0,0,0,0,0c0.7-0.6,0.9-1.7,0.4-2.5C147,58.4,146.5,57.6,145.7,56.4z"/>
	<path class="st7" d="M169.6,28.4c-4.3-7.1-12.3-6.6-12.3-6.6c-0.8,0.2-1.3,0.6-1.6,1.1c-1.1,1.6-0.1,3.8,1.8,4.2
		c4.4,0.9,6.9,3,8.3,4.9c1.5,2,3.3,3.1,5.1,1.4c0,0,0,0,0,0c0.7-0.6,0.9-1.7,0.4-2.5C170.9,30.4,170.4,29.6,169.6,28.4z"/>
	<path class="st7" d="M201.8,87c-7.5,3.4-8,11.5-8,11.5c0.1,0.8,0.5,1.3,0.9,1.7c1.5,1.3,3.8,0.5,4.4-1.3c1.4-4.2,3.8-6.5,5.8-7.7
		c2.1-1.2,3.5-2.9,2-4.9c0,0,0,0,0,0c-0.6-0.8-1.6-1.1-2.4-0.7C203.9,86,203.1,86.4,201.8,87z"/>
	<path class="st7" d="M202.9,180.5c-0.4-8.2-7.7-11.7-7.7-11.7c-0.8-0.2-1.4-0.1-2,0.2c-1.7,0.9-1.9,3.3-0.4,4.6
		c3.4,2.9,4.6,5.9,5,8.2c0.4,2.4,1.4,4.3,3.8,3.7c0,0,0,0,0,0c0.9-0.2,1.6-1.1,1.5-2C203.1,182.9,203,181.9,202.9,180.5z"/>
	<path class="st5" d="M52.3,103.4c6,5.6,13.7,3,13.7,3c0.7-0.4,1.1-0.9,1.3-1.5c0.6-1.8-1-3.7-2.9-3.6c-4.5,0.3-7.4-1.1-9.3-2.5
		c-2-1.5-4-2.1-5.3,0c0,0,0,0,0,0c-0.5,0.8-0.4,1.9,0.3,2.5C50.5,101.9,51.3,102.5,52.3,103.4z"/>
	<path class="st6" d="M166.2,211.3c-7.8-2.6-13.7,2.9-13.7,2.9c-0.5,0.6-0.6,1.3-0.5,1.9c0.2,1.9,2.4,2.9,4.1,2
		c3.9-2.1,7.2-2.1,9.5-1.6c2.4,0.5,4.6,0.2,4.9-2.2c0,0,0,0,0,0c0.1-1-0.4-1.9-1.3-2.1C168.4,212,167.5,211.7,166.2,211.3z"/>
	<path class="st4" d="M175,167.7c-8.2,0.8-11.3,8.2-11.3,8.2c-0.2,0.8,0,1.4,0.3,1.9c1,1.7,3.4,1.7,4.6,0.2c2.7-3.5,5.7-4.9,8-5.3
		c2.4-0.5,4.3-1.6,3.5-4c0,0,0,0,0,0c-0.3-0.9-1.1-1.5-2.1-1.4C177.3,167.4,176.4,167.6,175,167.7z"/>
</g>
</svg>
