<?xml version="1.0" encoding="utf-8"?>
<!-- Generator: Adobe Illustrator 22.0.1, SVG Export Plug-In . SVG Version: 6.00 Build 0)  -->
<svg id="milkShake" class="food" version="1.1" xmlns="http://www.w3.org/2000/svg" xmlns:xlink="http://www.w3.org/1999/xlink" x="0px" y="0px"
	 viewBox="0 0 172.8 298.4" style="enable-background:new 0 0 172.8 298.4;" xml:space="preserve">
<style type="text/css">
	.st0{fill:#FFFFFF;stroke:#000000;stroke-width:3;stroke-miterlimit:10;}
	.st1{fill:#009444;stroke:#000000;stroke-width:3;stroke-miterlimit:10;}
	.st2{fill:#C49A6C;stroke:#000000;stroke-width:3;stroke-miterlimit:10;}
	.st3{fill:#A97C50;}

	#milkShake:hover .st1 {fill:#ff005e;}
</style>
<defs>
	<script xlink:href="../../js/main.js" type="text/javascript">
		
	</script>
</defs>
<g id="cup_bottom">
	<path class="st0" d="M54.5,278c0,0,1,8.5,1.8,10.2c0,0,34.8,19.2,80.2,0c0,0,0.7-6.8,0.2-9.8C136.7,278.5,99.8,298,54.5,278z"/>
</g>
<g id="straw">
	<g id="straaw">
		<path class="st1" d="M1.6,7.9c0,0,2.7-7,12.7-6.3l26.2,62.9l-11.6,7.3L1.6,7.9z"/>
	</g>
</g>
<g id="whip">
	<path class="st2" d="M126.3,61.5c17.4,1.9,18.1,2.2,26.7,5.1c33,11.2,11.3,33.7,11.3,33.7l-141.1,3.7c-23.8-54,92.1-51.7,92.1-51.7
		c-41.5-0.5-70.1,10.2-70.1,10.2c-5-22,50.5-35.6,50.5-35.6c16.7-4.7,10-10.5,7.1-12.5c-0.2-0.1-0.1-0.5,0.2-0.4
		c4.5,1.1,19.2,6,14.7,23.6c0,0-12.5-2.8-26.6-1.3c0,0,61.8-5.2,63,30.7"/>
</g>
<g id="whip_shadow">
	<path class="st3" d="M30.6,72.3c0,0-6.9,16.1,37.8,17.7c0,0-39.4,7.3-44.6,12.1C23.8,102,15,85,30.6,72.3z"/>
	<path class="st3" d="M157.1,69.8c0,0,6.9,17.9-37.8,19.4c0,0,39,4.9,44.1,9.7C163.5,98.8,181.2,80,157.1,69.8z"/>
	<path class="st3" d="M146.9,52.1c0,0-0.8,7.8-9.9,9.1c0,0,10.1,1.7,15.3,3.5C152.3,64.7,152,57.6,146.9,52.1z"/>
	<path class="st3" d="M52.5,48.2c0,0-0.1,6.6,8.9,7.9c0,0-9.8,2.4-15,4.3C46.4,60.3,45.4,54.6,52.5,48.2z"/>
</g>
<g id="cup_mid">
	<path class="st0" d="M36.6,157.2l14.5,119.2c0.5,1,47.1,24.1,89.1-0.2c0.9-0.5,1.5-1.4,1.6-2.4l13.5-117.2
		C155.3,156.5,96,141.5,36.6,157.2z"/>
</g>
<g id="cup_mid_2">
	<path class="st0" d="M29,114.3c0,0-1.3-11.4,67-11.8c0,0,63.3-0.8,66.3,11.8l-5.3,43.2c0,0-55-17.7-122.3,0L29,114.3z"/>
</g>
<g id="top_cup">
	<path class="st0" d="M29,114.3c0,0-29.5-17.2,44.7-23.6c15.6-1.3,31.2-1.4,46.8,0.1c26.7,2.4,63,8.6,41.9,23.6
		c0,0-13-10.4-66.3-11.8C96,102.5,46.6,103.7,29,114.3z"/>
</g>
<g id="logo">
	<circle class="st1" cx="95.6" cy="222.9" r="31"/>
</g>
</svg>
