<?xml version="1.0" encoding="utf-8"?>
<!-- Generator: Adobe Illustrator 22.0.1, SVG Export Plug-In . SVG Version: 6.00 Build 0)  -->
<svg id="yolk" class="food" version="1.1" xmlns="http://www.w3.org/2000/svg" xmlns:xlink="http://www.w3.org/1999/xlink" x="0px" y="0px"
	 viewBox="0 0 385.5 183" style="enable-background:new 0 0 385.5 183;" xml:space="preserve">
<style type="text/css">
	.st0{fill:#FFFFFF;stroke:#000000;stroke-width:3;stroke-miterlimit:10;}
	.st1{fill:#F8951D;stroke:#000000;stroke-width:3;stroke-miterlimit:10;}
	.st2{fill:none;stroke:#000000;stroke-width:2;stroke-miterlimit:10;}
	.st3{fill:#E58026;}
	.st4{fill:#FBB045;}
	.st5{fill:#E8DCC7;}

	#yolk:hover .st1 {fill:#74d95b;}
	#yolk:hover .st3 {fill:#4fa134;}
	#yolk:hover .st4 {fill:#81ff4b;}
</style>
<defs>
	<script xlink:href="../../js/main.js" type="text/javascript">
		
	</script>
</defs>
<g id="white">
	<path class="st0" d="M325.5,42.8c3.2,0.9,6.5,1.2,9.8,1c12.6-0.8,56.7-2.7,47.6,13c0,0-11.9,19.8-4.3,35.8c0.8,1.8,1.5,3.6,1.9,5.6
		c1.5,7.8,2.6,24.4-11.9,30.8c-4.9,2.2-10.5,2.5-15.7,1.3c-12.1-2.8-43.6-9-58.5-1c-2.9,1.5-5.8,3.1-8.8,4.2
		c-8.3,3.2-28,14.8-42,25.5c0,0-21.2,18.3-57.2,22c-16.8,1.7-33.8-1.6-49-8.8c-8.9-4.2-22.1-8.9-37.8-9.7c0,0-60,7.8-73.1-11.8
		c-0.4-0.6-0.7-1.2-1-1.8c-1.7-3.6-6.8-15.6-3.8-27.4c1.8-6.9-0.2-14.2-5.7-18.7c-1.9-1.6-4.4-3.3-7.4-5.1
		c-3.7-2.2-6.3-5.8-6.9-10.1C1.2,84.6,1.7,80.9,4.6,77c3.1-4.2,7.8-6.9,13-7.8c11.3-1.9,38-7.9,46.4-22.7c1.9-3.4,4.2-6.5,7.2-9
		c6.4-5.5,17.9-12.4,31.4-8.6l174.5-3.5c0,0,21.5-10,31.5,4.5C308.4,30,313.3,39.3,325.5,42.8z"/>
</g>
<g id="yellow">
	<path class="st1" d="M285.1,43.9c3.2,15.3-0.8,37.3-38.6,54.2c-1.2,0.5-2.3,1.1-3.5,1.7c-9.3,4.8-63.1,30.2-129.4,13.5
		c-0.7-0.2-1.4-0.3-2.1-0.5c-6.2-1.2-42.1-9.6-38.6-42.2c0.8-7.3,3.5-14.2,7.6-20.3C91,34.7,120.4,4.6,190.9,2
		c0,0,44.3-4.5,73.9,13.7C275.1,22,282.7,32.1,285.1,43.9z"/>
</g>
<g id="lines">
	<path class="st2" d="M98.6,123.7c-56-22.7-25.9-74-25.9-74"/>
	<path class="st2" d="M59.9,69.7c0,0-6.6,20.7,4.7,36.3"/>
</g>
<g id="dark_yellow">
	<path class="st3" d="M81.5,51.6c0,0-4.2,62.1,105.1,41.4c0,0,79.6-8.5,88.9-65.8c1.4,3.2,47.9,56.8-81.1,86.6
		c-5.9,1.4-12,1.5-18,2.4C151.6,119.8,45.8,118,81.5,51.6z"/>
	<path class="st4" d="M174.8,80.3c-6.1-0.8-9.9-7-7.8-12.8c4-10.7,15.2-27,46.5-39.9c0,0,30.8-11.6,41.7-2.5c2.9,2.4,3.7,6.5,2.4,10
		C253.1,47.6,233.2,87.9,174.8,80.3z"/>
</g>
<g id="beige">
	<path class="st5" d="M282.9,32.6c0,0,20.4,33-23.1,60.6c0,0-47.3,29-105.3,27.2c0.5,0.1-61.3-0.8-78.2-27.1c0,0-8.2-10.8-4-28.2
		c0,0-20.7,35.8,26.3,55.8c0,0,53,30.2,142.7-3.8C241.3,117.3,332.8,81,282.9,32.6z"/>
</g>
</svg>
