<?xml version="1.0" encoding="utf-8"?>
<!-- Generator: Adobe Illustrator 22.0.1, SVG Export Plug-In . SVG Version: 6.00 Build 0)  -->
<svg id="box" class="food" version="1.1" xmlns="http://www.w3.org/2000/svg" xmlns:xlink="http://www.w3.org/1999/xlink" x="0px" y="0px"
	 viewBox="0 0 197.7 285.8" style="enable-background:new 0 0 197.7 285.8;" xml:space="preserve">
<style type="text/css">
	.st0{fill:#FED53E;stroke:#000000;stroke-width:3;stroke-miterlimit:10;}
	.st1{fill:#FAA625;stroke:#000000;stroke-width:3;stroke-miterlimit:10;}
	.st2{fill:#F04B2F;stroke:#000000;stroke-width:3;stroke-miterlimit:10;}
	.st3{fill:#D52E27;stroke:#000000;stroke-width:3;stroke-miterlimit:10;}
	.st4{fill:#F36E48;stroke:#000000;stroke-width:3;stroke-miterlimit:10;}
	.st5{fill:#FED53F;}
	.st6{fill:#E17926;}
	.st7{fill:#F7D83E;}

	#box:hover .st2 {fill:#0348de;}
	#box:hover .st3 {fill:#0319a3;}
	#box:hover .st4 {fill:#3563fa;}
</style>
<defs>
	<script xlink:href="../../js/main.js" type="text/javascript">
		
	</script>
</defs>
<g id="fries">
	<path class="st0" d="M85,121.3c0,0,5.1-114.1,7.2-116.2c0,0,10-3.8,13.5-3.6c0,0,0.6,89.9-4.8,113C100.9,114.6,92.6,114.3,85,121.3
		z"/>
	<path class="st1" d="M105.7,1.5c0,0,9.5-1.2,18.4,11.7c0,0-5.9,99-9.3,109.2l-13.9-7.8C100.9,114.6,107,8.2,105.7,1.5z"/>
	<path class="st0" d="M109.3,134.4c0,0,16.5-113,18.7-114.9c0,0,10.3-2.8,13.8-2.2c0,0-8.4,89.5-16,112
		C125.8,129.3,117.5,128.2,109.3,134.4z"/>
	<path class="st1" d="M141.8,17.3c0,0,9.6-0.3,17.1,13.4c0,0-15.7,97.9-20.2,107.7l-13-9.2C125.8,129.3,142.4,24,141.8,17.3z"/>
	<path class="st0" d="M70.1,143.8c0,0-22.7-111.9-21.2-114.4c0,0,8.8-6.1,12.2-6.8c0,0,22.4,87,22.8,110.8
		C83.9,133.4,75.7,135.2,70.1,143.8z"/>
	<path class="st1" d="M61.1,22.6c0,0,8.9-3.5,20.7,6.8c0,0,18.3,97.4,17.5,108.2l-15.3-4.2C83.9,133.4,64,28.7,61.1,22.6z"/>
	<path class="st0" d="M46.9,168.8c0,0-22.7-111.9-21.2-114.4c0,0,8.8-6.1,12.2-6.8c0,0,22.4,87,22.8,110.8
		C60.7,158.5,52.5,160.2,46.9,168.8z"/>
	<path class="st1" d="M37.9,47.6c0,0,8.9-3.5,20.7,6.8c0,0,18.3,97.4,17.5,108.2l-15.3-4.2C60.7,158.5,40.7,53.8,37.9,47.6z"/>
	<path class="st0" d="M94.6,181.1c0,0-12.5-113.5-10.9-115.9c0,0,9.3-5.3,12.8-5.7c0,0,14.5,88.7,12.7,112.4
		C109.2,172,100.9,173.1,94.6,181.1z"/>
	<path class="st1" d="M96.5,59.6c0,0,9.2-2.7,20,8.7c0,0,7.3,89.2,5.5,99.8l-12.8,3.9C109.2,172,98.8,66,96.5,59.6z"/>
	<path class="st0" d="M131.5,163.7c0,0,12.2-113.5,14.3-115.5c0,0,10.2-3.1,13.7-2.8c0,0-4.5,85-11.3,107.8
		C148.3,153.2,139.5,157.2,131.5,163.7z"/>
	<path class="st1" d="M159.5,45.5c0,0,9.6-0.7,17.6,12.8c0,0-12.3,74.5-16.4,84.5l-12.5,10.5C148.3,153.2,160.4,52.2,159.5,45.5z"/>
	<path class="st0" d="M136.6,160.9c0,0,28.3-85.7,30.8-87.2c0,0,10.7-1.1,14,0c0,0-14.2,52.5-25.3,73.5
		C156,147.2,145.6,156.1,136.6,160.9z"/>
	<path class="st1" d="M181.4,73.7c0,0,9.5,1.2,14.8,16c0,0-11.3,27.9-17.3,37L156,147.2C156,147.2,180.9,80.5,181.4,73.7z"/>
	<path class="st0" d="M44.7,175.7c0,0-43.7-78.9-43.1-81.8c0,0,6.5-8.5,9.5-10.3c0,0,28.9,46,36.8,68.5
		C47.8,152.1,47.3,165.8,44.7,175.7z"/>
	<path class="st1" d="M11,83.6c0,0,7.4-6.1,21.8,0c0,0,33.7,67.6,36.3,78.1l-21.2-9.6C47.8,152.1,15.6,88.6,11,83.6z"/>
	<path class="st0" d="M80,187.1c0,0-28.6-85.6-27.5-88.3c0,0,7.9-7.2,11.2-8.4c0,0,22.3,57.5,25.9,81.1
		C89.7,171.5,84.4,177.9,80,187.1z"/>
	<path class="st1" d="M63.8,90.5c0,0,8.4-4.7,21.4,4c0,0,20.7,72.6,21.4,83.4l-16.9-6.3C89.7,171.5,67.4,96.2,63.8,90.5z"/>
	<path class="st0" d="M98.3,187.1c0,0,5-90.1,7-92.2c0,0,10-3.8,13.5-3.6c0,0-0.5,61.7-5.8,84.9C113.1,176.2,105.9,180.1,98.3,187.1
		z"/>
	<path class="st1" d="M118.9,91.3c0,0,9.5-1.3,18.4,11.6c0,0-7.5,75.1-10.9,85.4l-13.3-12.1C113.1,176.2,120.2,97.9,118.9,91.3z"/>
</g>
<g id="fry_box_front">
	<path class="st2" d="M32.4,138.2c0,0,40.5,34.8,68,34.8c0,0,29,2,70-38.8l-9.5,144.5c0,0-27.8-5.2-59.5-3c0,0-37.8,1.5-49.5,7.8
		L32.4,138.2z"/>
</g>
<g id="left__x26__right_side_box">
	<path class="st3" d="M160.9,278.7c0,0,10.2-3.3,13.5-13.3c0,0,16.7-120,13.7-142c0,0-15.3,3.7-17.7,10.8L160.9,278.7"/>
	<path class="st4" d="M50.9,283.8c0,0-10.3-2.7-14.3-12.5c0,0-23.6-118.8-21.9-141c0,0,15.5,2.8,18.3,9.8L50.9,283.8"/>
</g>
<g id="graphic">
	<polygon class="st5" points="17.9,153.5 34.1,160.8 35.1,169.2 18.9,161 	"/>
	<polygon class="st6" points="186,142.7 171.4,151.5 170.1,161.7 185.2,151.5 	"/>
	<path class="st7" d="M37.4,163l1.3,10.3c0,0,17.6,22,61.6,22.9c0,0,43,1.4,66.5-29.2l0.6-10.4c0,0-22.1,32.3-66.8,32.2
		c-0.2,0-0.3,0-0.5,0C97.1,188.9,60.8,190,37.4,163z"/>
</g>
</svg>
