<?xml version="1.0" encoding="utf-8"?>
<!-- Generator: Adobe Illustrator 22.0.1, SVG Export Plug-In . SVG Version: 6.00 Build 0)  -->
<svg id="hotdog" class="food" version="1.1" xmlns="http://www.w3.org/2000/svg" xmlns:xlink="http://www.w3.org/1999/xlink" x="0px" y="0px"
	 viewBox="0 0 312 312" style="enable-background:new 0 0 312 312;" xml:space="preserve">
<style type="text/css">
	.st0{fill:#F5B753;stroke:#000000;stroke-width:2;stroke-miterlimit:10;}
	.st1{fill:url(#SVGID_1_);stroke:#000000;stroke-width:2;stroke-miterlimit:10;}
	.st2{fill:url(#SVGID_2_);stroke:#000000;stroke-width:3;stroke-miterlimit:10;}
	.st3{fill:url(#SVGID_3_);stroke:#000000;stroke-width:2;stroke-miterlimit:10;}
	.st4{fill:#1B100C;}
	.st5{fill:#FFC835;stroke:#000000;stroke-width:2;stroke-miterlimit:10;}

	#hotdog:hover .st5 {fill:#ff0d00;}
</style>
<defs>
	<script xlink:href="../../js/main.js" type="text/javascript">
		
	</script>
</defs>
<g id="exterior_bun">
	<path class="st0" d="M85.8,134.5c-0.5-0.1-0.8-0.5-0.7-1c0.3-3.6,2.9-17.5,23.6-15.2c0,0,67.3,7.3,99.3-8c0,0,0.1,0,0.1,0
		c1.1-0.4,20.6-6.2,24,6.7c0.1,0.4-0.1,0.9-0.5,1C223.8,121.1,153.8,147.7,85.8,134.5z"/>
</g>
<g id="inner_bun">
	<linearGradient id="SVGID_1_" gradientUnits="userSpaceOnUse" x1="158.137" y1="115.2199" x2="162.0419" y2="137.3658">
		<stop  offset="0" style="stop-color:#F5B753"/>
		<stop  offset="1" style="stop-color:#CC8C2B"/>
	</linearGradient>
	<path class="st1" d="M93,134.4c0,0,0.3-11.9,16.8-9c3.1,0.5,6.2,1,9.3,1.2c11.6,1,36.7,2.8,46.8,1.2c1.8-0.3,3.5-0.6,5.3-0.8
		c6.2-0.7,19.9-2.6,30.8-6.1c4-1.3,7.7-3.2,11.3-5.5c3.1-2,9.2-4,14.4,5.5c0,0-41.2,14.5-55.8,13.7c-4.5-0.2-8.9-0.2-13.3,0.3
		C144.3,136.8,116.6,139.1,93,134.4z"/>
</g>
<g id="weiner">
	<linearGradient id="SVGID_2_" gradientUnits="userSpaceOnUse" x1="153.0841" y1="123.7656" x2="162.7473" y2="178.5685">
		<stop  offset="0" style="stop-color:#C9602F"/>
		<stop  offset="0.4793" style="stop-color:#BD532A"/>
		<stop  offset="1" style="stop-color:#AD4023"/>
	</linearGradient>
	<path class="st2" d="M52.3,156c0,0-3.7-17.5,39.2-20.7c3.2-0.2,6.4-0.1,9.6,0.2c15.4,1.8,71.4,6.5,126.6-14.6c0,0,21.3-14,30.7,0
		c0,0,12,12.7-2,29.3C256.3,150.3,39,229.7,52.3,156z"/>
</g>
<g id="front_bun">
	<linearGradient id="SVGID_3_" gradientUnits="userSpaceOnUse" x1="163.9815" y1="150.1721" x2="175.8425" y2="217.4392">
		<stop  offset="0" style="stop-color:#F5B753"/>
		<stop  offset="0.2498" style="stop-color:#F0B350"/>
		<stop  offset="0.4656" style="stop-color:#E5AA48"/>
		<stop  offset="0.6687" style="stop-color:#D59B3D"/>
		<stop  offset="0.8629" style="stop-color:#C0882E"/>
		<stop  offset="1" style="stop-color:#AC7722"/>
	</linearGradient>
	<path class="st3" d="M165,159.7c0,0,49.3-7.3,73.3-18c0,0,18.4-6.7,18,22.3c-0.1,7.8-3,15.3-8.1,21.2
		c-9.1,10.2-28.6,24.3-69.8,31.9c0,0-84,14.7-98-26.7c0,0-9.3-26,31.8-30.9c2.9-0.3,5.8-0.4,8.6-0.1
		C129.6,160.1,152.5,161.8,165,159.7z"/>
</g>
<g id="dog_lines">
	<path class="st4" d="M62,149.7c0,0-4.3,4-2.8,9c0,0,2.2-3,7-2.7c0,0-6.5,2-5.8,4.8c0,0,4,4,7.5,4.7c0,0-4.8,0.8-8.2-3
		c0,0-1,5.8,5.5,10.7c0,0-7.2-1.7-8-10.5c0,0-2.3,0.3-2.5,1.2c0,0-0.7-2,1.8-3.2c0,0-1.8-0.8-1.9-3.2c0,0,0.7,0.8,1.9,1.2
		C56.5,158.7,58,151.3,62,149.7z"/>
</g>
<g id="mustard">
	<path class="st5" d="M72,144.2c2.2-1.6,8.7-3.4,26.7,6.1c0,0,6.7,5.7,17,3.3c0,0,5.3-1,4.7-8c0,0,0.9-8.9,20,2.9
		c0,0,15.3,7.5,22.7-0.2c0,0,2.7-11,16-3.7c0,0,22.3,12,26.3-0.7c0,0,1.3-15,10.3-8.3c0,0,17.3,6.3,19.3-1.7c0,0-0.1-3.8,1.3-7.4
		c1.6-4.1,6.2-6.3,10.5-5.1c2.5,0.7,5.9,1.1,4.7-2.1c-0.6-1.7-2-2.9-3.7-3.5c-4.8-1.5-15.6-3.9-17.5,6.5c0,0,1.7,12.3-8,7.3
		c0,0-7.9-3.9-14.2-3.6c-3.2,0.2-5.9,2.5-6.8,5.5c-1.5,5-5.9,14.7-16.4,7.1c0,0-12.3-8.5-24-3.2c-1.3,0.6-2.3,1.5-3.1,2.6
		c-2,2.7-8.2,7.9-23.2-0.4c0,0-8.2-4.4-15.3-3.6c-4.2,0.5-7.4,4-7.8,8.2c-0.3,3.2-3,6.9-17.3-1.2c0,0-19-8.3-27,0
		c0,0-1.6,2.3,0.7,3.6C69.3,145.2,70.9,145.1,72,144.2z"/>
</g>
</svg>
