<?xml version="1.0" encoding="utf-8"?>
<!-- Generator: Adobe Illustrator 22.0.1, SVG Export Plug-In . SVG Version: 6.00 Build 0)  -->
<svg id="swap" class="food" version="1.1" xmlns="http://www.w3.org/2000/svg" xmlns:xlink="http://www.w3.org/1999/xlink" x="0px" y="0px"
	 viewBox="0 0 198.9 392.9" style="enable-background:new 0 0 198.9 392.9;" xml:space="preserve">
<style type="text/css">
	.st0{fill:url(#SVGID_1_);stroke:#000000;stroke-width:3;stroke-miterlimit:10;}
	.st1{fill:#F6B2D0;stroke:#000000;stroke-width:3;stroke-miterlimit:10;}
	.st2{fill:url(#SVGID_2_);stroke:#000000;stroke-width:3;stroke-miterlimit:10;}
	.st3{fill:none;stroke:#000000;stroke-width:2;stroke-miterlimit:10;}

	#swap:hover .st0 {fill:url(#SVGID_2_);}
	#swap:hover .st2 {fill:url(#SVGID_1_);}
</style>
<defs>
	<script xlink:href="../../js/main.js" type="text/javascript">
		
	</script>
</defs>
<g id="cone">
	<linearGradient id="SVGID_1_" gradientUnits="userSpaceOnUse" x1="49.7637" y1="291.5497" x2="162.4304" y2="291.5497">
		<stop  offset="0" style="stop-color:#EEC391"/>
		<stop  offset="0.3107" style="stop-color:#ECC28F"/>
		<stop  offset="0.4663" style="stop-color:#E8BD88"/>
		<stop  offset="0.5875" style="stop-color:#E2B67D"/>
		<stop  offset="0.6909" style="stop-color:#DAAC6D"/>
		<stop  offset="0.7821" style="stop-color:#D0A15A"/>
		<stop  offset="0.8015" style="stop-color:#CE9E55"/>
	</linearGradient>
	<path class="st0" d="M49.8,223.4c0,0,37.3-41.3,112.7-20.7l-25.3,183.3L49.8,223.4z"/>
</g>
<g id="ice_cream">
	<path class="st1" d="M33.1,210.4"/>
	<linearGradient id="SVGID_2_" gradientUnits="userSpaceOnUse" x1="15.0521" y1="120.5295" x2="181.4205" y2="120.5295">
		<stop  offset="0" style="stop-color:#F8BBD6"/>
		<stop  offset="0.211" style="stop-color:#F7B8D4"/>
		<stop  offset="0.4018" style="stop-color:#F5B0CF"/>
		<stop  offset="0.5848" style="stop-color:#F2A1C6"/>
		<stop  offset="0.762" style="stop-color:#EE8EBB"/>
		<stop  offset="0.8454" style="stop-color:#ED82B4"/>
	</linearGradient>
	<path class="st2" d="M162.4,201.9l-0.7,10.8c38-20.3,3-36.3,3-36.3c3.3-1.7,13.3,8,13.3,8c19-76.3-49.7-89.7-49.7-89.7
		c11.7-0.3,38,20.3,38,20.3c1.7-71.7-63.3-55.3-63.3-55.3c10.3-6.3,33.3,0,33.3,0c3.4-4.3,3.8-10.2,2.9-16
		c-2.1-14.2-11.5-26.1-24.5-32.1c-22.4-10.5-35.1,2.5-35.1,2.5c18,6.3,14.9,17.7,8.4,24.9c-4.8,5.3-11.1,9.5-18.1,11
		c-19.9,4.2-29.3,14.8-29.3,14.8c-31.3,34-5.4,54-5.4,54c-1.3,1.1,14.4-11.8,20.4-13.3c0,0-73.8,37.2-22.6,105c0,0,2-8,4.3-11
		c-3,1.8-13.2,30.6,10.3,33.7c0,0,2,0.6,7.4,0.3l-5.4-10C49.8,223.4,86.4,182.9,162.4,201.9z"/>
	<path class="st3" d="M74.4,233.5"/>
</g>
</svg>
