<?xml version="1.0" encoding="utf-8"?>
<!-- Generator: Adobe Illustrator 22.0.1, SVG Export Plug-In . SVG Version: 6.00 Build 0)  -->
<svg id="pizza" class="food" version="1.1" xmlns="http://www.w3.org/2000/svg" xmlns:xlink="http://www.w3.org/1999/xlink" x="0px" y="0px"
	 viewBox="0 0 350.8 402.8" style="enable-background:new 0 0 350.8 402.8;" xml:space="preserve">
<style type="text/css">
	.st0{fill:url(#SVGID_1_);stroke:#000000;stroke-width:3;stroke-miterlimit:10;}
	.st1{fill:url(#SVGID_2_);stroke:#000000;stroke-width:3;stroke-miterlimit:10;}
	.st2{fill:url(#SVGID_3_);stroke:#000000;stroke-width:3;stroke-miterlimit:10;}
	.st3{fill:#BE3927;}
	.st4{fill:#A51E22;stroke:#000000;stroke-width:3;stroke-miterlimit:10;}
	.st5{fill:none;stroke:#000000;stroke-width:2;stroke-miterlimit:10;}
	.st6{fill:none;stroke:#000000;stroke-miterlimit:10;}

	#pizza:hover .st4 {fill:#238b8f;}
</style>
<defs>
	<script xlink:href="../../js/main.js" type="text/javascript">
		
	</script>
</defs>
<g id="crust">
	<linearGradient id="SVGID_1_" gradientUnits="userSpaceOnUse" x1="139.1413" y1="81.0759" x2="349.3128" y2="81.0759">
		<stop  offset="0.2377" style="stop-color:#B3682E"/>
		<stop  offset="0.4363" style="stop-color:#AD642C"/>
		<stop  offset="0.7779" style="stop-color:#9D5B26"/>
		<stop  offset="0.9128" style="stop-color:#955623"/>
	</linearGradient>
	<path class="st0" d="M141.9,32.9c0,0-13.6-15,19-31.4c0,0,61.5,1.6,102,31.4c0,0,93.4,55.7,85.9,85.2c0,0-52.4,42.5-59.9,42.5
		c0,0-4.5-15,9.2-24.8L141.9,32.9"/>
</g>
<g id="inner_crust">
	<linearGradient id="SVGID_2_" gradientUnits="userSpaceOnUse" x1="317.702" y1="97.6629" x2="317.702" y2="159.1424">
		<stop  offset="0.1845" style="stop-color:#EDD7A6"/>
		<stop  offset="0.45" style="stop-color:#E8D3A3"/>
		<stop  offset="0.6959" style="stop-color:#DFCB9D"/>
		<stop  offset="0.8431" style="stop-color:#D7C498"/>
	</linearGradient>
	<path class="st1" d="M298.2,135.9c0,0-0.8-20.1,10-30.9c0,0,20.2-16.4,33.2,0c0,0,5.2,6.2,5.6,14.9L328,134
		c0,0-23.6,19.8-38.6,25.1C289.4,159.1,283.9,150.5,298.2,135.9"/>
</g>
<g id="cheese">
	<linearGradient id="SVGID_3_" gradientUnits="userSpaceOnUse" x1="51.5359" y1="395.7515" x2="239.8647" y2="69.5567">
		<stop  offset="0" style="stop-color:#DC9E27"/>
		<stop  offset="0.159" style="stop-color:#DFA42D"/>
		<stop  offset="0.4282" style="stop-color:#E5B443"/>
		<stop  offset="0.7727" style="stop-color:#F1CF6C"/>
		<stop  offset="1" style="stop-color:#FAE489"/>
	</linearGradient>
	<path class="st2" d="M11.9,372.9c0,0-6.2-7.5,0-12.8c0,0,0.5-4.8-1.4-8.2c0,0-1.4-2.8-1.4-6.2c0,0,0.8-6.8-2.5-8.5
		c0,0-8.5-3.5-3.8-15.8c0,0,5.6-3.8,3.8-8c0,0,7.3-6.8,5.2-15.5c0,0-2.3-7.2,6.2-13.5c0,0,10-12,11.5-23.2l27.2-54
		c0,0,13.5-21.8,12.2-28.5c0,0,1.2-5.8,4-6.8l17-44.8c0,0,2.8-14.5,9.2-19c0,0,5.2-19.5,13-26.2l17-31.5c0,0,3.2-9,7.5-10.8
		c0,0,2-6.2,5-6.8c0,0,6.5-2,13.8,1.5c0,0,11.8,3.2,14.8,3c0,0,7.8,1,24.5,12.2c0,0,9.5-0.8,12.8,6.2c0,0,8.8,6,14.8,3.8
		c0,0,6,2.2,4.5,6c0,0,12.2,5,10.2,10.2c0,0,8.5,4,7.8,9c0,0,5.2-2.2,6,1.8c0,0,18.2-7.2,19,10c0,0,0.5,5.2,4.8,7c0,0,5.2,3.8,2.2,8
		c0,0,18,24.3,21.2,24.3c0,0,0.8,4.8-6,7.8c0,0-4.5,6-3.2,17c0,0,1.2,13.2-4,7.5c0,0-1.5,11.5,2.5,19.2c0,0,2.5,9-4.8,9.5
		c0,0-6.8,2-8.8-4.2c0,0,1.5-13.8-3-16.2c0,0-3,2-1.5,11.8c0,0-2,9-7.5,1.5c0,0-9.2-10.8-10,5.5c0,0,3.8,12.8,2,23.2l1.5,13.5
		c0,0,0.7,9.2,2.7,10.5c0,0,2,11.2-6.5,12.2c0,0-7.8,2-9.5-7c0,0,0.8-25.8-0.8-28c0,0-0.2-14.8,1-16c0,0-1.2-14.8-9.2-7
		c0,0-4,6.2-2.2,10.5c0,0,1.2,5.8-4.8,7.8c0,0-7.5-0.5-7.2-5.2c0,0,0.2-7.1-3.5-7c0,0-3,2.8-1.2,5.5c0,0-14,9.8-25.2,14
		c0,0-6.5,4-2.8,13.2c0,0,0.8,10.2-5.2,11.5c0,0-6.6,1.5-5.9-7.2c0,0,1.9-10.2-2.6-5.8c0,0-4.8,7.8-12.5,7.8c0,0-6,9.5-12.5,11.2
		c0,0-18.5,6.2-19.8,9.2c0,0-7.2,3-3.8,14.2c0,0-3,12.5-7.8,4c0,0-2-4-1-7.5c0,0,0.2-8.2-7-0.8c0,0-4.8,8,0.5,23.5
		c0,0,7.8,27.2-3.2,27c0,0-11,2.8-9.5-13.2c0,0,4.8-17.5-3-27.5c0,0-10,2.5-10.8,7.5c0,0-3.2,6.8-11.2,5.8c0,0-7.5,0.8-7.5,8.8
		c0,0-0.5,14.2-8.2,6.5c0,0,0.5-11-6.5-5.8c0,0-3.5,4.5-7.2,6.2c0,0-1,2.8,1.2,5.8c0,0-1.8,6.2-5,2.2c0,0-1-8-5.2-3.8
		c0,0-8.2,7.5-15.2,10.2c0,0-2.8,7.5-1.5,13.2c0,0-0.5,13.8,2.8,19.8C18.4,358.4,22.8,368.4,11.9,372.9z"/>
	<path class="st3" d="M68.8,239.9c0,0,2.8-1.2,3.3,1.3C72.1,241.2,68.9,244,68.8,239.9z"/>
</g>
<g id="pepperoni">
	<path class="st4" d="M28.8,247.8c0,0-2.3,9.5,5.1,19.1c8.2,10.6,22.6,14.6,35.1,9.6c4.4-1.8,9.1-4.6,14-9.2c0.9-0.9,1.9-1.6,3-2.3
		c2.5-1.7,6.9-6.2,10-11.3c2.9-4.9,3.5-10.7,1.5-16c-2.4-6.6-8.1-16.4-20.7-19.8c-2.1-0.6-4.3-0.7-6.4-0.4
		c-6.6,0.9-20.5,1.3-25.8,7.3C44.4,224.8,30.4,236.8,28.8,247.8z"/>
	<path class="st4" d="M73.4,170.8c0,0-13.4-15.3,5.3-32.4c0.8-0.8,1.6-1.6,2.3-2.5c2.9-3.5,12.4-13.4,28.1-13.1
		c0,0,18.5-3.6,29.5,13.9c3.3,5.3,4.3,11.7,2.7,17.7c-2.1,7.8-7.6,18.5-22.6,25.2c-2,0.9-4.1,1.5-6,2.5c-3.9,1.9-10.9,4.8-16.9,4.3
		C95.8,186.5,84.8,186.5,73.4,170.8z"/>
	<path class="st4" d="M115.1,258.1c0,0,11.8-8.7,17.6-10c1.6-0.4,3.2-1,4.7-1.8c3.3-1.7,8.4-4.5,11.8-7.2c0,0,20.2-17,28-19.1
		c1.2-0.3,2.3-0.7,3.4-1.3c1.5-0.8,3.6-1.9,5.6-3.1c1.1-0.6,2-1.4,2.8-2.4c2.9-3.6,8.4-12.2-6.4-11.1c0,0-3.3,0.8-5.7,2.4
		c-1.7,1.2-3.7,1.8-5.8,2c-4.9,0.5-12.8,1.1-17.2,0.9c0,0-12.2-1.3-19.9,16.3c0,0-4.9,7.2-8.9,10.5c-2.4,2-4.3,4.6-5.7,7.5
		C117.1,246.1,114.9,252.2,115.1,258.1z"/>
	<path class="st4" d="M115.1,82.1c0,0-11.7-16.5,2.3-25.5c0,0,6.5-7,13-7c0,0,11-17,34.5-6.5c0,0,12.5,6,15.5,15.5
		c0,0,6.5,24-15.5,37.5C164.9,96.1,127.8,113.6,115.1,82.1z"/>
	<path class="st4" d="M230.5,143.5c3-4.9,6.7-10.7,9.7-13.9c1.4-1.6,2.5-3.5,3.1-5.5c1.7-6,3.3-17.7-6.1-24.8
		c-1.1-0.8-2.2-1.4-3.5-1.7c-4.5-1.4-16.8-4.6-29.3-3.4c-3.7,0.4-7.2,1.5-10.4,3.3c-11.4,6.6-39.6,26.3-25.5,54.1
		c0,0,2.5,13.5,30,7.5c0,0,6.5-0.5,14.7-2.6C220.4,154.6,226.6,149.9,230.5,143.5z"/>
	<path class="st3" d="M49.8,255.6c0,0,2.8-1.2,3.3,1.3C53.1,257,49.9,259.8,49.8,255.6z"/>
	<path class="st3" d="M81.2,244.2c0,0,2.8-1.2,3.3,1.3C84.5,245.5,81.4,248.3,81.2,244.2z"/>
	<path class="st3" d="M125.5,244.2c0,0,2.8-1.2,3.3,1.3C128.9,245.5,125.7,248.3,125.5,244.2z"/>
	<path class="st3" d="M150,216.7c0,0,2.8-1.2,3.3,1.3C153.3,218.1,150.1,220.9,150,216.7z"/>
	<path class="st3" d="M175.6,136.2c0,0,2.8-1.2,3.3,1.3C178.9,137.5,175.8,140.3,175.6,136.2z"/>
	<path class="st3" d="M226.3,117.1c0,0,2.8-1.2,3.3,1.3C229.7,118.5,226.5,121.3,226.3,117.1z"/>
	<path class="st3" d="M196.8,102.7c0,0,2.8-1.2,3.3,1.3C200.1,104,196.9,106.9,196.8,102.7z"/>
	<path class="st3" d="M58.4,268.3c0,0,2.8-1.2,3.3,1.3C61.8,269.6,58.6,272.5,58.4,268.3z"/>
	<path class="st3" d="M206.6,119.6c0,0,2.8-1.2,3.3,1.3C209.9,120.9,206.8,123.7,206.6,119.6z"/>
</g>
<g id="lines">
	<path class="st5" d="M7.2,322.6c0,0,0.8,4,8.2-1.8"/>
	<path class="st5" d="M31.2,309.4c0,0,5.2-2.8,6-4"/>
	<path class="st5" d="M53.4,296.4c0,0,6.8-1,10-6"/>
	<path class="st5" d="M70.4,286.6c0,0,19-11,21.5-14.5c0,0,7.8-6.8,11-6.8"/>
	<path class="st5" d="M115.1,258.5c0,0,10.7-8.7,20.7-11c0,0,9-4.3,14.7-9.7c0,0,13.3-12.3,21-15.3c0,0,8.3-5,13.7-6"/>
	<path class="st5" d="M200.4,204.5c0,0,2.3-2.3,4-2.3"/>
	<path class="st5" d="M212.4,197.8c0,0,19.3-12,20.7-13.7"/>
	<path class="st5" d="M244.9,181.8c0,0,0.3,4,1.1,4.5"/>
	<path class="st5" d="M245.4,176.5c0,0,6.3-1.2,11.5-6.2c0.9-0.9,2-1.7,3-2.5c3.6-2.6,10.5-7.5,13.1-7.7"/>
	<path class="st5" d="M34.2,276c0,0,4.6,4.8,13.6,1.8"/>
	<path class="st5" d="M78.4,208.8c0,0,9.7,0.3,12.3,3.7c0,0,6-7,12.2-3.7"/>
	<path class="st5" d="M78.4,200.1c0,0,3.1-1.8,5.2-1.2c0.6,0.2,1.3-0.2,1.4-0.8c0.2-1.3,1.1-2.9,4.1-3.3"/>
	<path class="st5" d="M107.1,210.2c0,0,3.7-4.7,5.7-4.1"/>
	<path class="st5" d="M107.1,200.1c0,0,2-6.3,5.7-5.3c0,0,2-0.7,2.3-2c0,0,2-7,5.3-6.7"/>
	<path class="st5" d="M141.1,163.5c0,0,6.7-6.7,15-3.3"/>
	<path class="st5" d="M153.8,200.1c0,0,9.3-3.7,12.7-2.3c0,0,1.3-6,5.7-6.8"/>
	<path class="st5" d="M164.4,188.8c0,0-2,4,2,9"/>
	<path class="st5" d="M156.1,120.1c0,0,2.7,0.7,5.2,0.4c1.7-0.2,3.3-0.8,3.9-2.4c0,0,1.6,1,1.2,2.5"/>
	<path class="st5" d="M161.3,124.8c-1.2,1,0.8-0.1,0-4.2"/>
	<path class="st5" d="M181.7,83.1c0,0,1.5,2.5,0,3.2c0,0-4.5,0.8-4,4.2c0,0-3.4,0.2-2.7,3.5c0,0-2.8,2.5-5.3,2
		c-1.2,0.1-4.2,0.5-5.5,2.8c0,0-9-0.5-10.8,4.2c0,0-1.5,3.5-4.9,5c-2.3,1.1-4,3.2-4.3,5.8c-0.1,1.1,0,2.1,0.7,2.7"/>
	<path class="st5" d="M192.3,163.5c0,0,4.2-0.6,6.2-4.3"/>
	<path class="st5" d="M235.7,147.6c0,0-6.8-0.8-10,5.9h-5.4"/>
	<path class="st5" d="M239.2,142.6c0,0-7.8-0.1-7.5,5"/>
	<path class="st5" d="M253.4,101c0,0,3.5,3.1,9.5,0c0,0-8.7,2.9-9.5,5.4"/>
	<path class="st5" d="M230.1,77.8c0,0,7.2-2.8,11.2,1.5"/>
	<path class="st6" d="M35.9,240.6c0,0,0.7-3.2,3-4.8c0,0,4.7-3.2,7-7"/>
	<path class="st6" d="M48.9,226.1c0,0,1.7,0.7,2.5,0"/>
	<path class="st6" d="M34.9,262.1c0,0-4.2-6.8-3.5-11"/>
	<path class="st6" d="M72.4,269.3c0,0,7-4.7,8.3-6c0,0,2.2-1.3,4.3-6.7c0,0,1.1-3.1,3.1-4.8c0.6-0.6,1.2-1.2,1.6-1.9l3.4-5.8"/>
	<path class="st6" d="M84.6,176.5c0,0-4.8-2-6.2-7.3c0,0,1.7-4-1.3-10c0,0-2-8,1.3-11.2"/>
	<path class="st6" d="M129.1,130.5c0,0,2.7,1.8,3,3.7"/>
	<path class="st6" d="M107.1,180.5c0,0,10.2-2.5,15.3-6.8"/>
	<path class="st6" d="M132.1,166.1c0,0,1.8-1.1,3-4.8"/>
	<path class="st6" d="M135.1,142.3c0,0,3.7,1.3,1.8,10.2c0,0-1.8,3.3-0.7,4.8"/>
	<path class="st6" d="M175,57c0,0,1.8,1.7,0.9,5"/>
	<path class="st6" d="M146.6,98.6c0,0,7.2,0.8,13.5-5c0,0,3.7-3.5,5.7-4"/>
	<path class="st6" d="M169.6,84.8c0,0,0.6-3.2,1.9-4.8c0.8-0.9,1.6-1.9,2-3.1c0.7-1.8,1.5-4.5,1.5-7.4"/>
	<path class="st6" d="M206.6,99.9c0,0,27-3.6,29.1,15.2"/>
	<path class="st6" d="M177.3,156.3c0,0,9.2,0.8,23.8-5.7c0,0,9-6.1,15.8-3c0,0,3.5,1.8,5.8,0"/>
	<path class="st6" d="M230.1,132.3c0,0,3.4-1.7,4.5-9.4"/>
	<path class="st6" d="M144.7,216.5c0,0,3.9-4.6,7.5-3.5c0,0,4.9-0.2,6.4-0.5"/>
	<path class="st6" d="M167.3,210.2c0,0,3-0.6,3.9,1.2"/>
	<path class="st6" d="M181.7,207.4c0,0,3-2.8,3.4,0"/>
	<path class="st5" d="M315.4,106.4c0,0,3-1.8,4.5,0"/>
	<path class="st5" d="M312.7,112.1c0,0-6.4,1.3-6.3,7.8c0,3,0.5,5.9,0,8.9l-0.1,0.3"/>
	<path class="st5" d="M284.4,115.6c0,0,0.4-11.8,5-10.6"/>
	<path class="st5" d="M298.2,95.7c0,0,6.4-5.6,11.3-6.1"/>
	<path class="st5" d="M280.1,71.6c0,0,2-2.9,4.3-2.5"/>
	<path class="st5" d="M268.4,84.8c0,0,2.3-8.7,6-7.9"/>
	<path class="st5" d="M244.5,78.1c0,0,0.2-10.1,8.9-13.9"/>
	<path class="st5" d="M260.8,53.1c0,0,8.3-7.5,19.3-6.1"/>
	<path class="st5" d="M268.4,44.5c0,0,2-2.3,6-1.7"/>
	<path class="st5" d="M215.4,58.2c0,0,4.9-24.8,17-29.1"/>
	<path class="st5" d="M239.2,26.1c0,0,4-1.7,6.8-1.7"/>
	<path class="st5" d="M187.9,28.1c0,0,1.5-8.2,5.4-11.7"/>
	<path class="st5" d="M196.8,17.2c0,0,1.7-8,8.5-8"/>
	<path class="st5" d="M165.2,34.5c0,0-6.2-22.3,17.2-29"/>
	<path class="st5" d="M173.4,5.5c0,0-8.3,4-9.5,11"/>
</g>
<g id="shades">
	<path class="st3" d="M135.4,66c1.7-1.7,4.1-3.2,5,1c0,0-1.5,4.2-4.2,3.2C134.4,69.6,134.1,67.3,135.4,66z"/>
	<path class="st3" d="M105.8,164.2c1.7-1.7,4.1-3.2,5,1c0,0-1.5,4.2-4.2,3.2C104.9,167.8,104.5,165.5,105.8,164.2z"/>
	<path class="st3" d="M185.8,129.2c1.7-1.7,4.1-3.2,5,1c0,0-1.5,4.2-4.2,3.2C184.8,132.8,184.5,130.5,185.8,129.2z"/>
	<path class="st3" d="M70.3,260.8c1.7-1.7,4.1-3.2,5,1c0,0-1.5,4.2-4.2,3.2C69.4,264.4,69,262.1,70.3,260.8z"/>
	<path class="st3" d="M98.8,142.8c1.7-1.7,4.1-3.2,5,1c0,0-1.5,4.2-4.2,3.2C97.9,146.4,97.5,144.1,98.8,142.8z"/>
	<path class="st3" d="M137.8,91.4c1.7-1.7,4.1-3.2,5,1c0,0-1.5,4.2-4.2,3.2C136.8,95,136.5,92.7,137.8,91.4z"/>
	<path class="st3" d="M164.3,58.2c1.7-1.7,4.1-3.2,5,1c0,0-1.5,4.2-4.2,3.2C163.4,61.8,163,59.5,164.3,58.2z"/>
	<path class="st3" d="M142.2,225.1c1.7-1.7,4.1-3.2,5,1c0,0-1.5,4.2-4.2,3.2C141.2,228.7,140.9,226.4,142.2,225.1z"/>
	<path class="st3" d="M78.4,233.4c1.7-1.7,4.1-3.2,5,1c0,0-1.5,4.2-4.2,3.2C77.5,237,77.1,234.7,78.4,233.4z"/>
	<path class="st3" d="M216.2,132.8c1.7-1.7,4.1-3.2,5,1c0,0-1.5,4.2-4.2,3.2C215.2,136.4,214.9,134.1,216.2,132.8z"/>
	<path class="st3" d="M89.1,153c0,0,2.8-1.2,3.3,1.3C92.4,154.3,89.3,157.1,89.1,153z"/>
	<path class="st3" d="M123.9,157.7c0,0,2.8-1.2,3.3,1.3C127.2,159.1,124,161.9,123.9,157.7z"/>
	<path class="st3" d="M105.4,136.2c0,0,2.8-1.2,3.3,1.3C108.8,137.5,105.6,140.3,105.4,136.2z"/>
	<path class="st3" d="M150,85.1c0,0,2.8-1.2,3.3,1.3C153.3,86.4,150.1,89.2,150,85.1z"/>
	<path class="st3" d="M120.8,61.5c0,0,2.8-1.2,3.3,1.3C124.1,62.8,120.9,65.7,120.8,61.5z"/>
	<path class="st3" d="M165.7,69.4c0,0,2.8-1.2,3.3,1.3C169,70.7,165.8,73.5,165.7,69.4z"/>
	<path class="st3" d="M49.3,242.6c1.7-1.7,4.1-3.2,5,1c0,0-1.5,4.2-4.2,3.2C48.4,246.2,48,243.9,49.3,242.6z"/>
	<path class="st3" d="M200.3,109.1c1.7-1.7,4.1-3.2,5,1c0,0-1.5,4.2-4.2,3.2C199.4,112.7,199,110.4,200.3,109.1z"/>
	<path class="st3" d="M164.3,216.4c1.7-1.7,4.1-3.2,5,1c0,0-1.5,4.2-4.2,3.2C163.4,220,163,217.7,164.3,216.4z"/>
	<path class="st3" d="M123.4,141.3c1.7-1.7,4.1-3.2,5,1c0,0-1.5,4.2-4.2,3.2C122.5,144.9,122.2,142.6,123.4,141.3z"/>
	<path class="st3" d="M146.5,48.7c1.7-1.7,4.1-3.2,5,1c0,0-1.5,4.2-4.2,3.2C145.6,52.3,145.2,50,146.5,48.7z"/>
	<path class="st3" d="M151.6,56c0,0,2.8-1.2,3.3,1.3C155,57.3,151.8,60.1,151.6,56z"/>
	<path class="st3" d="M96.4,172.6c0,0,2.8-1.2,3.3,1.3C99.7,174,96.6,176.8,96.4,172.6z"/>
</g>
</svg>
