<?xml version="1.0" encoding="utf-8"?>
<!-- Generator: Adobe Illustrator 22.0.1, SVG Export Plug-In . SVG Version: 6.00 Build 0)  -->
<svg id="line" class="food" version="1.1" xmlns="http://www.w3.org/2000/svg" xmlns:xlink="http://www.w3.org/1999/xlink" x="0px" y="0px"
	 viewBox="0 0 171.2 327.9" style="enable-background:new 0 0 171.2 327.9;" xml:space="preserve">
<style type="text/css">
	.st0{fill:url(#SVGID_1_);stroke:#000000;stroke-width:3;stroke-miterlimit:10;}
	.st1{fill:url(#SVGID_2_);stroke:#000000;stroke-width:3;stroke-miterlimit:10;}
	.st2{fill:#B08A5D;stroke:#000000;stroke-width:3;stroke-miterlimit:10;}
	.st3{fill:url(#SVGID_3_);stroke:#000000;stroke-width:3;stroke-miterlimit:10;}
	.st4{fill:url(#SVGID_4_);stroke:#000000;stroke-width:3;stroke-miterlimit:10;}
	.st5{fill:#91532C;stroke:#000000;stroke-width:3;stroke-miterlimit:10;}
	.st6{fill:url(#SVGID_5_);stroke:#000000;stroke-width:3;stroke-miterlimit:10;}
	.st7{fill:none;stroke:#000000;stroke-width:2;stroke-miterlimit:10;}

	#line:hover .st0 {stroke:#03b3ff;}
	#line:hover .st1 {stroke:#03b3ff;}
	#line:hover .st2 {stroke:#03b3ff;}
	#line:hover .st3 {stroke:#03b3ff;}
	#line:hover .st4 {stroke:#03b3ff;}
	#line:hover .st5 {stroke:#03b3ff;}
	#line:hover .st6 {stroke:#03b3ff;}
	#line:hover .st7 {stroke:#03b3ff;}
</style>
<defs>
	<script xlink:href="../../js/main.js" type="text/javascript">
		
	</script>
</defs>
<g id="side_stick">
	<linearGradient id="SVGID_1_" gradientUnits="userSpaceOnUse" x1="61.5638" y1="300.8086" x2="118.9305" y2="243.4419">
		<stop  offset="0" style="stop-color:#A48156"/>
		<stop  offset="1" style="stop-color:#C7A079"/>
	</linearGradient>
	<path class="st0" d="M85.9,218.1l-5.7,0.1v25.4c0,0-13.4,39.3-5.2,66.9c3.2,10.7,13.8,17.4,24.8,15.6c0.1,0,0.3,0,0.4-0.1
		l-5.3-106.6l-7.5-1.3"/>
</g>
<g id="front_stick">
	<linearGradient id="SVGID_2_" gradientUnits="userSpaceOnUse" x1="79.6302" y1="271.4822" x2="125.542" y2="271.4822">
		<stop  offset="0" style="stop-color:#A48156"/>
		<stop  offset="1" style="stop-color:#C7A079"/>
	</linearGradient>
	<path class="st1" d="M87.4,218.1v24.2c0,0-12.3,39.9-6,65.5c2.4,9.6,10.1,18.9,20,18.2c6.9-0.5,10.7-2.1,14.2-5.1
		c0,0,20.8-10.7,2.3-78.7v-25.3"/>
	<path class="st2" d="M85.9,218.1c0,0,28.3-7.2,32-1.2"/>
</g>
<g id="side_popsicle">
	<linearGradient id="SVGID_3_" gradientUnits="userSpaceOnUse" x1="34.3097" y1="10.994" x2="34.3097" y2="228.849">
		<stop  offset="0" style="stop-color:#743B19"/>
		<stop  offset="1" style="stop-color:#91532C"/>
	</linearGradient>
	<path class="st3" d="M39.5,11C20.9,20.2,6.3,42.7,3.2,57.6C0.4,70.7,1.1,84.3,4.7,97.2c4.3,15.4,8.2,34.4,8.2,34.4
		c4.3,14.3,6.3,83.3,6.3,83.3c1,9,10.2,13.9,10.2,13.9S107.1,219.4,39.5,11"/>
</g>
<g id="bottom_popsicle">
	<linearGradient id="SVGID_4_" gradientUnits="userSpaceOnUse" x1="97.5667" y1="193.2928" x2="97.5667" y2="253.7845">
		<stop  offset="0" style="stop-color:#743B19"/>
		<stop  offset="1" style="stop-color:#91532C"/>
	</linearGradient>
	<path class="st4" d="M165.6,202.2c0,0,2.3,23.9-13.2,24.4l-13,1.8v2.8c0,0,5.5,10-3,9.5c0,0-6-1-2.5-9.5c0,0,0.8-0.8,0.8-2.5
		c0,0-9.7,1.2-16.7,0.5v-12.1c0,0-6.5-5.6-30.5,1.1l-7.2,0.1l-0.8,16.4l-14,0.2c0,0-4.5,2.1-2.4,6.3c0.5,0.9,0.8,1.8,1,2.7
		c0.7,3.9,0.9,11.3-6.9,9.8c0,0-9.5-1.2-3.8-13c0,0,1.2-3,0.8-6l-4.8-0.2c0,0,0.1,9.7-3.9,9c0,0-4.1,0.1-2.4-9.7
		c0,0-9.8-0.7-13.8-4.7c0-1,8.4-19.3,14.9-24.7C50.8,198.7,160,183.8,165.6,202.2z"/>
	<circle class="st5" cx="53.9" cy="264.8" r="6.2"/>
</g>
<g id="front_popsicle">
	<linearGradient id="SVGID_5_" gradientUnits="userSpaceOnUse" x1="4.1333" y1="64.8098" x2="184.8246" y2="169.132">
		<stop  offset="0" style="stop-color:#743B19"/>
		<stop  offset="1" style="stop-color:#91532C"/>
	</linearGradient>
	<path class="st6" d="M79.7,1.6c2.3-0.2,48-3.5,76.6,67.9c0,0,0,0.1,0,0.1c0.8,1.7,22.1,56,9.3,132.5c-0.2,1.5-2,2.2-3.3,1.4
		c-2.1-1.4-5.5-3-10.4-3.7c-1.5-0.2-2.8,1.3-2.3,2.8c1.6,5,3.6,14.4-4.6,14.3c-0.4,0-0.8-0.1-1.1-0.3c-1.6-1.1-5.8-4.7-1.1-12.1
		c0.2-0.4,0.4-0.8,0.3-1.2c0-1.3-0.3-3.8-2.1-3.9c-1-0.1-1.9,0.8-2,1.7c-0.3,1.9-1.3,5.4-4.6,4.9c-0.2,0-0.4-0.1-0.6-0.2
		c-1.1-0.6-4.7-3-3-9.5l-0.5,2.5c-0.2,1.1-1.4,1.9-2.5,1.6c-7.9-1.6-38.5-6.5-82.3,3.8c-1.3,0.3-2.6-0.7-2.6-2
		c-0.1-6.1-0.6-22.2-2.5-44.3c-0.3-3.4-0.8-6.8-1.5-10.2c-2.2-11.4-7.8-40-11.1-58.5c-0.3-1.5-0.6-3-0.9-4.5
		c-1.5-6.2-5.8-26.9-3.1-48.2c1.5-12.4,9.3-23.1,20.7-28.3c8.3-3.7,19.8-6.8,35-6.7C79.5,1.6,79.6,1.6,79.7,1.6z"/>
</g>
<g id="lines">
	<path class="st7" d="M94.3,243.6c0,0,2.4-14.3,0-26.6"/>
	<path class="st7" d="M105.4,318.6c1.9,0.6,12.5,1.8,13.3-15.7"/>
	<path class="st7" d="M104.1,289.6c0,0-1.4,13.7-8.8,13c0,0-7-1.2-3.7,11.3"/>
	<path class="st7" d="M103.2,274.7c0,0,5.7-9.8,1.3-28c0,0-5-14.9,3.7-21.9"/>
	<path class="st7" d="M115.1,255.4c0,0-0.3,18.9,2.6,25.6c1,2.3,1.4,4.8,0.8,7.3c-0.7,3.4-2.4,5.9-6.1-1.9"/>
	<path class="st7" d="M86.2,288.5c0,0-1.4-8.4,1.5-13.5c2.1-3.8,7.8-3,8.9,1.2c0.9,3.6,0.7,8.7-4.7,13.7"/>
</g>
</svg>
