<?xml version="1.0" encoding="utf-8"?>
<!-- Generator: Adobe Illustrator 22.0.1, SVG Export Plug-In . SVG Version: 6.00 Build 0)  -->
<svg id="seed" class="food" version="1.1" xmlns="http://www.w3.org/2000/svg" xmlns:xlink="http://www.w3.org/1999/xlink" x="0px" y="0px"
	 viewBox="0 0 275.3 217.4" style="enable-background:new 0 0 275.3 217.4;" xml:space="preserve">
<style type="text/css">
	.st0{fill:#CF524E;stroke:#000000;stroke-width:3;stroke-miterlimit:10;}
	.st1{fill:#E9625A;stroke:#000000;stroke-width:3;stroke-miterlimit:10;}
	.st2{fill:#56A356;stroke:#000000;stroke-width:3;stroke-miterlimit:10;}
	.st3{fill:#6ABF6D;stroke:#000000;stroke-width:3;stroke-miterlimit:10;}
	.st4{fill:#0F1F12;}

	#seed:hover .st4 {fill:#FFFFFF;}
</style>
<defs>
	<script xlink:href="../../js/main.js" type="text/javascript">
		
	</script>
</defs>
<g id="side_pink">
	<path class="st0" d="M146.3,1.5c4.1,0,15.7,0.5,23.1,4.3c0,0,92.7,121,96.4,135l-27,1.2L145.6,2.7C145.3,2.2,145.7,1.5,146.3,1.5z"
		/>
</g>
<g id="pink">
	<path class="st1" d="M13.3,146.5c-0.1,0,106-138.3,131.8-144.6c0,0,93.6,134.6,93.6,140.1C237.9,142.8,138.3,253.5,13.3,146.5z"/>
</g>
<g id="green_bottom">
	<path class="st2" d="M247.7,155.5h25.6c0.2,0,0.3,0.2,0.2,0.3c-4.5,6.3-78.1,105.9-230.2,34.3C43.3,190.2,205.6,210.5,247.7,155.5z
		"/>
	<path class="st2" d="M240.1,141.9l25.2-1.1c0.3,0,0.6,0.1,0.7,0.4l7.7,13.1c0.3,0.5-0.1,1.2-0.7,1.2h-24.9c-0.3,0-0.5-0.1-0.6-0.3
		l-7.9-12C239.2,142.6,239.5,142,240.1,141.9z"/>
</g>
<g id="green_front">
	<path class="st3" d="M247.7,155.5l-8.9-13.5c0,0-51.1,55.1-123.4,51.1c0,0-52.7-2.3-102-46.6L2,159.8c0,0,49.8,54.1,127.3,50.5
		C129.3,210.3,210.3,205.8,247.7,155.5z"/>
</g>
<g id="seeds">
	<path class="st4" d="M124.8,87.3c0,0-9.2,13,0,15C124.8,102.3,133.8,100.5,124.8,87.3z"/>
	<path class="st4" d="M171.8,93.6c0,0-9.1,14.8,1.4,16C173.2,109.7,183.1,107,171.8,93.6z"/>
	<path class="st4" d="M81.5,117c0,0-12.8,11.6-3.1,15.7C78.3,132.7,88.6,132.8,81.5,117z"/>
	<path class="st4" d="M99.7,81c0,0-12.2,10.1-3.9,14.4C95.8,95.5,104.8,96.1,99.7,81z"/>
	<path class="st4" d="M111.2,138.8c0,0-9.1,13,0,15C111.3,153.7,120.1,152,111.2,138.8z"/>
	<path class="st4" d="M150.1,123.9c0,0-7.1,14.2,2.3,14.8C152.4,138.7,160.9,135.6,150.1,123.9z"/>
	<path class="st4" d="M190.5,129.8c0,0-4.4,12.8,3.8,11.9C194.3,141.8,201.4,137.9,190.5,129.8z"/>
	<path class="st4" d="M148.7,69.8c0,0-4.4,12.8,3.8,11.9C152.6,81.8,159.7,77.9,148.7,69.8z"/>
	<path class="st4" d="M121.2,53.5c0,0-10.9,8.1-3.5,12C117.6,65.5,125.6,66.4,121.2,53.5z"/>
	<path class="st4" d="M144.4,31.6c0,0-9.7,9.5-1.9,12.4C142.4,44,150.5,43.7,144.4,31.6z"/>
</g>
</svg>
